<svg xmlns="http://www.w3.org/2000/svg" viewBox="0 0 240 80" width="240" height="80" role="img"><title>Wendle Water</title><path d="M38 8C26 22 14 36 14 50a24 24 0 0 0 48 0C62 36 50 22 38 8Z" fill="none" stroke="#1565A8" stroke-width="3" stroke-linecap="round" stroke-linejoin="round"/><path d="M22 44q4-5 8 0t8 0 8 0 8 0M22 52q4-5 8 0t8 0 8 0 8 0M26 60q4-5 8 0t8 0 8 0" fill="none" stroke="#1565A8" stroke-width="2.5" stroke-linecap="round" stroke-linejoin="round"/><text x="76" y="36" font-family="Helvetica, Arial, sans-serif" font-size="24" font-weight="600" letter-spacing="0" fill="#1565A8">Wendle</text><text x="76" y="62" font-family="Helvetica, Arial, sans-serif" font-size="24" font-weight="400" letter-spacing="0" fill="#1565A8">Water</text></svg>
